# xmcd
#
# Track frame offsets: 
#        150
#        13770
#        36669
#        75353
#        107307
#        127428
#        142481
#        161515
#        187119
#
# Disc length: 2808 seconds
#
# Revision: 0
# Processed by: cddbd v1.5.2PL0 Copyright (c) Steve Scherf et al.
# Submitted via: ExactAudioCopyFreeDBPlugin 1.0
#
DISCID=810af609
DTITLE=Hobo - Requiem a bluesért
DYEAR=2014
DGENRE=Blues
TTITLE0=Mese dobbal
TTITLE1=Rabszolgahajó
TTITLE2=Böhöm Bill
TTITLE3=A blues, az ördög és én
TTITLE4=Túl sok
TTITLE5=Miss Maggie M'Gill
TTITLE6=Ajd menedéket!
TTITLE7=Elszállt egy hajó a szélben
TTITLE8=A blues érkezése
EXTD=
EXTT0=
EXTT1=
EXTT2=
EXTT3=
EXTT4=
EXTT5=
EXTT6=
EXTT7=
EXTT8=
PLAYORDER=
